# compute-mfcc-feats --write-utt2dur=ark,t:exp/make_mfcc/utt2dur.12 --verbose=2 --config=conf/mfcc.conf scp,p:exp/make_mfcc/wav_sre16_eval_test.12.scp ark:- | copy-feats --write-num-frames=ark,t:exp/make_mfcc/utt2num_frames.12 --compress=true ark:- ark,scp:/home/kaldinew/kaldi/egs/sre16/v2-callhome/mfcc/raw_mfcc_sre16_eval_test.12.ark,/home/kaldinew/kaldi/egs/sre16/v2-callhome/mfcc/raw_mfcc_sre16_eval_test.12.scp 
# Started at Mon Jun 21 15:39:10 EDT 2021
#
copy-feats --write-num-frames=ark,t:exp/make_mfcc/utt2num_frames.12 --compress=true ark:- ark,scp:/home/kaldinew/kaldi/egs/sre16/v2-callhome/mfcc/raw_mfcc_sre16_eval_test.12.ark,/home/kaldinew/kaldi/egs/sre16/v2-callhome/mfcc/raw_mfcc_sre16_eval_test.12.scp 
compute-mfcc-feats --write-utt2dur=ark,t:exp/make_mfcc/utt2dur.12 --verbose=2 --config=conf/mfcc.conf scp,p:exp/make_mfcc/wav_sre16_eval_test.12.scp ark:- 
ffmpeg version 3.4.8-0ubuntu0.2 Copyright (c) 2000-2020 the FFmpeg developers
  built with gcc 7 (Ubuntu 7.5.0-3ubuntu1~18.04)
  configuration: --prefix=/usr --extra-version=0ubuntu0.2 --toolchain=hardened --libdir=/usr/lib/x86_64-linux-gnu --incdir=/usr/include/x86_64-linux-gnu --enable-gpl --disable-stripping --enable-avresample --enable-avisynth --enable-gnutls --enable-ladspa --enable-libass --enable-libbluray --enable-libbs2b --enable-libcaca --enable-libcdio --enable-libflite --enable-libfontconfig --enable-libfreetype --enable-libfribidi --enable-libgme --enable-libgsm --enable-libmp3lame --enable-libmysofa --enable-libopenjpeg --enable-libopenmpt --enable-libopus --enable-libpulse --enable-librubberband --enable-librsvg --enable-libshine --enable-libsnappy --enable-libsoxr --enable-libspeex --enable-libssh --enable-libtheora --enable-libtwolame --enable-libvorbis --enable-libvpx --enable-libwavpack --enable-libwebp --enable-libx265 --enable-libxml2 --enable-libxvid --enable-libzmq --enable-libzvbi --enable-omx --enable-openal --enable-opengl --enable-sdl2 --enable-libdc1394 --enable-libdrm --enable-libiec61883 --enable-chromaprint --enable-frei0r --enable-libopencv --enable-libx264 --enable-shared
  libavutil      55. 78.100 / 55. 78.100
  libavcodec     57.107.100 / 57.107.100
  libavformat    57. 83.100 / 57. 83.100
  libavdevice    57. 10.100 / 57. 10.100
  libavfilter     6.107.100 /  6.107.100
  libavresample   3.  7.  0 /  3.  7.  0
  libswscale      4.  8.100 /  4.  8.100
  libswresample   2.  9.100 /  2.  9.100
  libpostproc    54.  7.100 / 54.  7.100
Guessed Channel Layout for Input Stream #0.0 : mono
Input #0, wav, from '/media/kaldinew/data2/large-farsdat/CD9/018/Fixed/018F02.wav':
  Duration: 00:01:07.92, bitrate: 352 kb/s
    Stream #0:0: Audio: pcm_s16le ([1][0][0][0] / 0x0001), 22050 Hz, mono, s16, 352 kb/s
Stream mapping:
  Stream #0:0 -> #0:0 (pcm_s16le (native) -> pcm_s16le (native))
Press [q] to stop, [?] for help
Output #0, wav, to 'pipe:':
  Metadata:
    ISFT            : Lavf57.83.100
    Stream #0:0: Audio: pcm_s16le ([1][0][0][0] / 0x0001), 8000 Hz, mono, s16, 128 kb/s
    Metadata:
      encoder         : Lavc57.107.100 pcm_s16le
VLOG[1] (compute-mfcc-feats[5.5.931~1-aecd]:Read():wave-reader.cc:249) Read in RIFF chunk size: 4294967295, data chunk size: 4294967295. Assume 'stream mode' (reading data to EOF).
size=      94kB time=00:00:06.00 bitrate= 128.1kbits/s speed= 349x    
video:0kB audio:94kB subtitle:0kB other streams:0kB global headers:0kB muxing overhead: 0.081250%
VLOG[2] (compute-mfcc-feats[5.5.931~1-aecd]:main():compute-mfcc-feats.cc:182) Processed features for key utt-018F02
ffmpeg version 3.4.8-0ubuntu0.2 Copyright (c) 2000-2020 the FFmpeg developers
  built with gcc 7 (Ubuntu 7.5.0-3ubuntu1~18.04)
  configuration: --prefix=/usr --extra-version=0ubuntu0.2 --toolchain=hardened --libdir=/usr/lib/x86_64-linux-gnu --incdir=/usr/include/x86_64-linux-gnu --enable-gpl --disable-stripping --enable-avresample --enable-avisynth --enable-gnutls --enable-ladspa --enable-libass --enable-libbluray --enable-libbs2b --enable-libcaca --enable-libcdio --enable-libflite --enable-libfontconfig --enable-libfreetype --enable-libfribidi --enable-libgme --enable-libgsm --enable-libmp3lame --enable-libmysofa --enable-libopenjpeg --enable-libopenmpt --enable-libopus --enable-libpulse --enable-librubberband --enable-librsvg --enable-libshine --enable-libsnappy --enable-libsoxr --enable-libspeex --enable-libssh --enable-libtheora --enable-libtwolame --enable-libvorbis --enable-libvpx --enable-libwavpack --enable-libwebp --enable-libx265 --enable-libxml2 --enable-libxvid --enable-libzmq --enable-libzvbi --enable-omx --enable-openal --enable-opengl --enable-sdl2 --enable-libdc1394 --enable-libdrm --enable-libiec61883 --enable-chromaprint --enable-frei0r --enable-libopencv --enable-libx264 --enable-shared
  libavutil      55. 78.100 / 55. 78.100
  libavcodec     57.107.100 / 57.107.100
  libavformat    57. 83.100 / 57. 83.100
  libavdevice    57. 10.100 / 57. 10.100
  libavfilter     6.107.100 /  6.107.100
  libavresample   3.  7.  0 /  3.  7.  0
  libswscale      4.  8.100 /  4.  8.100
  libswresample   2.  9.100 /  2.  9.100
  libpostproc    54.  7.100 / 54.  7.100
Guessed Channel Layout for Input Stream #0.0 : mono
Input #0, wav, from '/media/kaldinew/data2/large-farsdat/CD9/018/Fixed/018F03.wav':
  Duration: 00:01:19.13, bitrate: 352 kb/s
    Stream #0:0: Audio: pcm_s16le ([1][0][0][0] / 0x0001), 22050 Hz, mono, s16, 352 kb/s
Stream mapping:
  Stream #0:0 -> #0:0 (pcm_s16le (native) -> pcm_s16le (native))
Press [q] to stop, [?] for help
Output #0, wav, to 'pipe:':
  Metadata:
    ISFT            : Lavf57.83.100
VLOG[1] (compute-mfcc-feats[5.5.931~1-aecd]:Read():wave-reader.cc:249) Read in RIFF chunk size: 4294967295, data chunk size: 4294967295. Assume 'stream mode' (reading data to EOF).
    Stream #0:0: Audio: pcm_s16le ([1][0][0][0] / 0x0001), 8000 Hz, mono, s16, 128 kb/s
    Metadata:
      encoder         : Lavc57.107.100 pcm_s16le
size=      94kB time=00:00:06.00 bitrate= 128.1kbits/s speed= 319x    
video:0kB audio:94kB subtitle:0kB other streams:0kB global headers:0kB muxing overhead: 0.081250%
VLOG[2] (compute-mfcc-feats[5.5.931~1-aecd]:main():compute-mfcc-feats.cc:182) Processed features for key utt-018F03
ffmpeg version 3.4.8-0ubuntu0.2 Copyright (c) 2000-2020 the FFmpeg developers
  built with gcc 7 (Ubuntu 7.5.0-3ubuntu1~18.04)
  configuration: --prefix=/usr --extra-version=0ubuntu0.2 --toolchain=hardened --libdir=/usr/lib/x86_64-linux-gnu --incdir=/usr/include/x86_64-linux-gnu --enable-gpl --disable-stripping --enable-avresample --enable-avisynth --enable-gnutls --enable-ladspa --enable-libass --enable-libbluray --enable-libbs2b --enable-libcaca --enable-libcdio --enable-libflite --enable-libfontconfig --enable-libfreetype --enable-libfribidi --enable-libgme --enable-libgsm --enable-libmp3lame --enable-libmysofa --enable-libopenjpeg --enable-libopenmpt --enable-libopus --enable-libpulse --enable-librubberband --enable-librsvg --enable-libshine --enable-libsnappy --enable-libsoxr --enable-libspeex --enable-libssh --enable-libtheora --enable-libtwolame --enable-libvorbis --enable-libvpx --enable-libwavpack --enable-libwebp --enable-libx265 --enable-libxml2 --enable-libxvid --enable-libzmq --enable-libzvbi --enable-omx --enable-openal --enable-opengl --enable-sdl2 --enable-libdc1394 --enable-libdrm --enable-libiec61883 --enable-chromaprint --enable-frei0r --enable-libopencv --enable-libx264 --enable-shared
  libavutil      55. 78.100 / 55. 78.100
  libavcodec     57.107.100 / 57.107.100
  libavformat    57. 83.100 / 57. 83.100
  libavdevice    57. 10.100 / 57. 10.100
  libavfilter     6.107.100 /  6.107.100
  libavresample   3.  7.  0 /  3.  7.  0
  libswscale      4.  8.100 /  4.  8.100
  libswresample   2.  9.100 /  2.  9.100
  libpostproc    54.  7.100 / 54.  7.100
Guessed Channel Layout for Input Stream #0.0 : mono
Input #0, wav, from '/media/kaldinew/data2/large-farsdat/CD9/018/Fixed/018F04.wav':
  Duration: 00:01:23.97, bitrate: 352 kb/s
    Stream #0:0: Audio: pcm_s16le ([1][0][0][0] / 0x0001), 22050 Hz, mono, s16, 352 kb/s
Stream mapping:
  Stream #0:0 -> #0:0 (pcm_s16le (native) -> pcm_s16le (native))
Press [q] to stop, [?] for help
Output #0, wav, to 'pipe:':
  Metadata:
    ISFT            : Lavf57.83.100
VLOG[1] (compute-mfcc-feats[5.5.931~1-aecd]:Read():wave-reader.cc:249) Read in RIFF chunk size: 4294967295, data chunk size: 4294967295. Assume 'stream mode' (reading data to EOF).
    Stream #0:0: Audio: pcm_s16le ([1][0][0][0] / 0x0001), 8000 Hz, mono, s16, 128 kb/s
    Metadata:
      encoder         : Lavc57.107.100 pcm_s16le
size=      94kB time=00:00:06.00 bitrate= 128.1kbits/s speed= 141x    
video:0kB audio:94kB subtitle:0kB other streams:0kB global headers:0kB muxing overhead: 0.081250%
VLOG[2] (compute-mfcc-feats[5.5.931~1-aecd]:main():compute-mfcc-feats.cc:182) Processed features for key utt-018F04
ffmpeg version 3.4.8-0ubuntu0.2 Copyright (c) 2000-2020 the FFmpeg developers
  built with gcc 7 (Ubuntu 7.5.0-3ubuntu1~18.04)
  configuration: --prefix=/usr --extra-version=0ubuntu0.2 --toolchain=hardened --libdir=/usr/lib/x86_64-linux-gnu --incdir=/usr/include/x86_64-linux-gnu --enable-gpl --disable-stripping --enable-avresample --enable-avisynth --enable-gnutls --enable-ladspa --enable-libass --enable-libbluray --enable-libbs2b --enable-libcaca --enable-libcdio --enable-libflite --enable-libfontconfig --enable-libfreetype --enable-libfribidi --enable-libgme --enable-libgsm --enable-libmp3lame --enable-libmysofa --enable-libopenjpeg --enable-libopenmpt --enable-libopus --enable-libpulse --enable-librubberband --enable-librsvg --enable-libshine --enable-libsnappy --enable-libsoxr --enable-libspeex --enable-libssh --enable-libtheora --enable-libtwolame --enable-libvorbis --enable-libvpx --enable-libwavpack --enable-libwebp --enable-libx265 --enable-libxml2 --enable-libxvid --enable-libzmq --enable-libzvbi --enable-omx --enable-openal --enable-opengl --enable-sdl2 --enable-libdc1394 --enable-libdrm --enable-libiec61883 --enable-chromaprint --enable-frei0r --enable-libopencv --enable-libx264 --enable-shared
  libavutil      55. 78.100 / 55. 78.100
  libavcodec     57.107.100 / 57.107.100
  libavformat    57. 83.100 / 57. 83.100
  libavdevice    57. 10.100 / 57. 10.100
  libavfilter     6.107.100 /  6.107.100
  libavresample   3.  7.  0 /  3.  7.  0
  libswscale      4.  8.100 /  4.  8.100
  libswresample   2.  9.100 /  2.  9.100
  libpostproc    54.  7.100 / 54.  7.100
Guessed Channel Layout for Input Stream #0.0 : mono
Input #0, wav, from '/media/kaldinew/data2/large-farsdat/CD9/018/Fixed/018F05.wav':
  Duration: 00:01:44.46, bitrate: 352 kb/s
    Stream #0:0: Audio: pcm_s16le ([1][0][0][0] / 0x0001), 22050 Hz, mono, s16, 352 kb/s
Stream mapping:
  Stream #0:0 -> #0:0 (pcm_s16le (native) -> pcm_s16le (native))
Press [q] to stop, [?] for help
Output #0, wav, to 'pipe:':
  Metadata:
    ISFT            : Lavf57.83.100
VLOG[1] (compute-mfcc-feats[5.5.931~1-aecd]:Read():wave-reader.cc:249) Read in RIFF chunk size: 4294967295, data chunk size: 4294967295. Assume 'stream mode' (reading data to EOF).
    Stream #0:0: Audio: pcm_s16le ([1][0][0][0] / 0x0001), 8000 Hz, mono, s16, 128 kb/s
    Metadata:
      encoder         : Lavc57.107.100 pcm_s16le
size=      94kB time=00:00:06.00 bitrate= 128.1kbits/s speed= 454x    
video:0kB audio:94kB subtitle:0kB other streams:0kB global headers:0kB muxing overhead: 0.081250%
VLOG[2] (compute-mfcc-feats[5.5.931~1-aecd]:main():compute-mfcc-feats.cc:182) Processed features for key utt-018F05
ffmpeg version 3.4.8-0ubuntu0.2 Copyright (c) 2000-2020 the FFmpeg developers
  built with gcc 7 (Ubuntu 7.5.0-3ubuntu1~18.04)
  configuration: --prefix=/usr --extra-version=0ubuntu0.2 --toolchain=hardened --libdir=/usr/lib/x86_64-linux-gnu --incdir=/usr/include/x86_64-linux-gnu --enable-gpl --disable-stripping --enable-avresample --enable-avisynth --enable-gnutls --enable-ladspa --enable-libass --enable-libbluray --enable-libbs2b --enable-libcaca --enable-libcdio --enable-libflite --enable-libfontconfig --enable-libfreetype --enable-libfribidi --enable-libgme --enable-libgsm --enable-libmp3lame --enable-libmysofa --enable-libopenjpeg --enable-libopenmpt --enable-libopus --enable-libpulse --enable-librubberband --enable-librsvg --enable-libshine --enable-libsnappy --enable-libsoxr --enable-libspeex --enable-libssh --enable-libtheora --enable-libtwolame --enable-libvorbis --enable-libvpx --enable-libwavpack --enable-libwebp --enable-libx265 --enable-libxml2 --enable-libxvid --enable-libzmq --enable-libzvbi --enable-omx --enable-openal --enable-opengl --enable-sdl2 --enable-libdc1394 --enable-libdrm --enable-libiec61883 --enable-chromaprint --enable-frei0r --enable-libopencv --enable-libx264 --enable-shared
  libavutil      55. 78.100 / 55. 78.100
  libavcodec     57.107.100 / 57.107.100
  libavformat    57. 83.100 / 57. 83.100
  libavdevice    57. 10.100 / 57. 10.100
  libavfilter     6.107.100 /  6.107.100
  libavresample   3.  7.  0 /  3.  7.  0
  libswscale      4.  8.100 /  4.  8.100
  libswresample   2.  9.100 /  2.  9.100
  libpostproc    54.  7.100 / 54.  7.100
Guessed Channel Layout for Input Stream #0.0 : mono
Input #0, wav, from '/media/kaldinew/data2/large-farsdat/CD9/018/Fixed/018F06.wav':
  Duration: 00:01:26.62, bitrate: 352 kb/s
    Stream #0:0: Audio: pcm_s16le ([1][0][0][0] / 0x0001), 22050 Hz, mono, s16, 352 kb/s
Stream mapping:
  Stream #0:0 -> #0:0 (pcm_s16le (native) -> pcm_s16le (native))
Press [q] to stop, [?] for help
Output #0, wav, to 'pipe:':
  Metadata:
    ISFT            : Lavf57.83.100
VLOG[1] (compute-mfcc-feats[5.5.931~1-aecd]:Read():wave-reader.cc:249) Read in RIFF chunk size: 4294967295, data chunk size: 4294967295. Assume 'stream mode' (reading data to EOF).
    Stream #0:0: Audio: pcm_s16le ([1][0][0][0] / 0x0001), 8000 Hz, mono, s16, 128 kb/s
    Metadata:
      encoder         : Lavc57.107.100 pcm_s16le
size=      94kB time=00:00:06.00 bitrate= 128.1kbits/s speed= 177x    
video:0kB audio:94kB subtitle:0kB other streams:0kB global headers:0kB muxing overhead: 0.081250%
VLOG[2] (compute-mfcc-feats[5.5.931~1-aecd]:main():compute-mfcc-feats.cc:182) Processed features for key utt-018F06
ffmpeg version 3.4.8-0ubuntu0.2 Copyright (c) 2000-2020 the FFmpeg developers
  built with gcc 7 (Ubuntu 7.5.0-3ubuntu1~18.04)
  configuration: --prefix=/usr --extra-version=0ubuntu0.2 --toolchain=hardened --libdir=/usr/lib/x86_64-linux-gnu --incdir=/usr/include/x86_64-linux-gnu --enable-gpl --disable-stripping --enable-avresample --enable-avisynth --enable-gnutls --enable-ladspa --enable-libass --enable-libbluray --enable-libbs2b --enable-libcaca --enable-libcdio --enable-libflite --enable-libfontconfig --enable-libfreetype --enable-libfribidi --enable-libgme --enable-libgsm --enable-libmp3lame --enable-libmysofa --enable-libopenjpeg --enable-libopenmpt --enable-libopus --enable-libpulse --enable-librubberband --enable-librsvg --enable-libshine --enable-libsnappy --enable-libsoxr --enable-libspeex --enable-libssh --enable-libtheora --enable-libtwolame --enable-libvorbis --enable-libvpx --enable-libwavpack --enable-libwebp --enable-libx265 --enable-libxml2 --enable-libxvid --enable-libzmq --enable-libzvbi --enable-omx --enable-openal --enable-opengl --enable-sdl2 --enable-libdc1394 --enable-libdrm --enable-libiec61883 --enable-chromaprint --enable-frei0r --enable-libopencv --enable-libx264 --enable-shared
  libavutil      55. 78.100 / 55. 78.100
  libavcodec     57.107.100 / 57.107.100
  libavformat    57. 83.100 / 57. 83.100
  libavdevice    57. 10.100 / 57. 10.100
  libavfilter     6.107.100 /  6.107.100
  libavresample   3.  7.  0 /  3.  7.  0
  libswscale      4.  8.100 /  4.  8.100
  libswresample   2.  9.100 /  2.  9.100
  libpostproc    54.  7.100 / 54.  7.100
Guessed Channel Layout for Input Stream #0.0 : mono
Input #0, wav, from '/media/kaldinew/data2/large-farsdat/CD9/018/Fixed/018F07.wav':
  Duration: 00:01:41.21, bitrate: 352 kb/s
    Stream #0:0: Audio: pcm_s16le ([1][0][0][0] / 0x0001), 22050 Hz, mono, s16, 352 kb/s
Stream mapping:
  Stream #0:0 -> #0:0 (pcm_s16le (native) -> pcm_s16le (native))
Press [q] to stop, [?] for help
Output #0, wav, to 'pipe:':
  Metadata:
    ISFT            : Lavf57.83.100
VLOG[1] (compute-mfcc-feats[5.5.931~1-aecd]:Read():wave-reader.cc:249) Read in RIFF chunk size: 4294967295, data chunk size: 4294967295. Assume 'stream mode' (reading data to EOF).
    Stream #0:0: Audio: pcm_s16le ([1][0][0][0] / 0x0001), 8000 Hz, mono, s16, 128 kb/s
    Metadata:
      encoder         : Lavc57.107.100 pcm_s16le
size=      94kB time=00:00:06.00 bitrate= 128.1kbits/s speed= 281x    
video:0kB audio:94kB subtitle:0kB other streams:0kB global headers:0kB muxing overhead: 0.081250%
VLOG[2] (compute-mfcc-feats[5.5.931~1-aecd]:main():compute-mfcc-feats.cc:182) Processed features for key utt-018F07
ffmpeg version 3.4.8-0ubuntu0.2 Copyright (c) 2000-2020 the FFmpeg developers
  built with gcc 7 (Ubuntu 7.5.0-3ubuntu1~18.04)
  configuration: --prefix=/usr --extra-version=0ubuntu0.2 --toolchain=hardened --libdir=/usr/lib/x86_64-linux-gnu --incdir=/usr/include/x86_64-linux-gnu --enable-gpl --disable-stripping --enable-avresample --enable-avisynth --enable-gnutls --enable-ladspa --enable-libass --enable-libbluray --enable-libbs2b --enable-libcaca --enable-libcdio --enable-libflite --enable-libfontconfig --enable-libfreetype --enable-libfribidi --enable-libgme --enable-libgsm --enable-libmp3lame --enable-libmysofa --enable-libopenjpeg --enable-libopenmpt --enable-libopus --enable-libpulse --enable-librubberband --enable-librsvg --enable-libshine --enable-libsnappy --enable-libsoxr --enable-libspeex --enable-libssh --enable-libtheora --enable-libtwolame --enable-libvorbis --enable-libvpx --enable-libwavpack --enable-libwebp --enable-libx265 --enable-libxml2 --enable-libxvid --enable-libzmq --enable-libzvbi --enable-omx --enable-openal --enable-opengl --enable-sdl2 --enable-libdc1394 --enable-libdrm --enable-libiec61883 --enable-chromaprint --enable-frei0r --enable-libopencv --enable-libx264 --enable-shared
  libavutil      55. 78.100 / 55. 78.100
  libavcodec     57.107.100 / 57.107.100
  libavformat    57. 83.100 / 57. 83.100
  libavdevice    57. 10.100 / 57. 10.100
  libavfilter     6.107.100 /  6.107.100
  libavresample   3.  7.  0 /  3.  7.  0
  libswscale      4.  8.100 /  4.  8.100
  libswresample   2.  9.100 /  2.  9.100
  libpostproc    54.  7.100 / 54.  7.100
Guessed Channel Layout for Input Stream #0.0 : mono
Input #0, wav, from '/media/kaldinew/data2/large-farsdat/CD9/018/Fixed/018F08.wav':
  Duration: 00:01:33.16, bitrate: 352 kb/s
    Stream #0:0: Audio: pcm_s16le ([1][0][0][0] / 0x0001), 22050 Hz, mono, s16, 352 kb/s
Stream mapping:
  Stream #0:0 -> #0:0 (pcm_s16le (native) -> pcm_s16le (native))
Press [q] to stop, [?] for help
Output #0, wav, to 'pipe:':
  Metadata:
    ISFT            : Lavf57.83.100
    Stream #0:0: Audio: pcm_s16le ([1][0][0][0] / 0x0001), 8000 Hz, mono, s16, 128 kb/s
    Metadata:
      encoder         : Lavc57.107.100 pcm_s16le
VLOG[1] (compute-mfcc-feats[5.5.931~1-aecd]:Read():wave-reader.cc:249) Read in RIFF chunk size: 4294967295, data chunk size: 4294967295. Assume 'stream mode' (reading data to EOF).
size=      94kB time=00:00:06.00 bitrate= 128.1kbits/s speed= 204x    
video:0kB audio:94kB subtitle:0kB other streams:0kB global headers:0kB muxing overhead: 0.081250%
VLOG[2] (compute-mfcc-feats[5.5.931~1-aecd]:main():compute-mfcc-feats.cc:182) Processed features for key utt-018F08
ffmpeg version 3.4.8-0ubuntu0.2 Copyright (c) 2000-2020 the FFmpeg developers
  built with gcc 7 (Ubuntu 7.5.0-3ubuntu1~18.04)
  configuration: --prefix=/usr --extra-version=0ubuntu0.2 --toolchain=hardened --libdir=/usr/lib/x86_64-linux-gnu --incdir=/usr/include/x86_64-linux-gnu --enable-gpl --disable-stripping --enable-avresample --enable-avisynth --enable-gnutls --enable-ladspa --enable-libass --enable-libbluray --enable-libbs2b --enable-libcaca --enable-libcdio --enable-libflite --enable-libfontconfig --enable-libfreetype --enable-libfribidi --enable-libgme --enable-libgsm --enable-libmp3lame --enable-libmysofa --enable-libopenjpeg --enable-libopenmpt --enable-libopus --enable-libpulse --enable-librubberband --enable-librsvg --enable-libshine --enable-libsnappy --enable-libsoxr --enable-libspeex --enable-libssh --enable-libtheora --enable-libtwolame --enable-libvorbis --enable-libvpx --enable-libwavpack --enable-libwebp --enable-libx265 --enable-libxml2 --enable-libxvid --enable-libzmq --enable-libzvbi --enable-omx --enable-openal --enable-opengl --enable-sdl2 --enable-libdc1394 --enable-libdrm --enable-libiec61883 --enable-chromaprint --enable-frei0r --enable-libopencv --enable-libx264 --enable-shared
  libavutil      55. 78.100 / 55. 78.100
  libavcodec     57.107.100 / 57.107.100
  libavformat    57. 83.100 / 57. 83.100
  libavdevice    57. 10.100 / 57. 10.100
  libavfilter     6.107.100 /  6.107.100
  libavresample   3.  7.  0 /  3.  7.  0
  libswscale      4.  8.100 /  4.  8.100
  libswresample   2.  9.100 /  2.  9.100
  libpostproc    54.  7.100 / 54.  7.100
Guessed Channel Layout for Input Stream #0.0 : mono
Input #0, wav, from '/media/kaldinew/data2/large-farsdat/CD9/018/Fixed/018F09.wav':
  Duration: 00:01:42.23, bitrate: 352 kb/s
    Stream #0:0: Audio: pcm_s16le ([1][0][0][0] / 0x0001), 22050 Hz, mono, s16, 352 kb/s
Stream mapping:
  Stream #0:0 -> #0:0 (pcm_s16le (native) -> pcm_s16le (native))
Press [q] to stop, [?] for help
Output #0, wav, to 'pipe:':
  Metadata:
    ISFT            : Lavf57.83.100
VLOG[1] (compute-mfcc-feats[5.5.931~1-aecd]:Read():wave-reader.cc:249) Read in RIFF chunk size: 4294967295, data chunk size: 4294967295. Assume 'stream mode' (reading data to EOF).
    Stream #0:0: Audio: pcm_s16le ([1][0][0][0] / 0x0001), 8000 Hz, mono, s16, 128 kb/s
    Metadata:
      encoder         : Lavc57.107.100 pcm_s16le
size=      94kB time=00:00:06.00 bitrate= 128.1kbits/s speed= 284x    
video:0kB audio:94kB subtitle:0kB other streams:0kB global headers:0kB muxing overhead: 0.081250%
VLOG[2] (compute-mfcc-feats[5.5.931~1-aecd]:main():compute-mfcc-feats.cc:182) Processed features for key utt-018F09
ffmpeg version 3.4.8-0ubuntu0.2 Copyright (c) 2000-2020 the FFmpeg developers
  built with gcc 7 (Ubuntu 7.5.0-3ubuntu1~18.04)
  configuration: --prefix=/usr --extra-version=0ubuntu0.2 --toolchain=hardened --libdir=/usr/lib/x86_64-linux-gnu --incdir=/usr/include/x86_64-linux-gnu --enable-gpl --disable-stripping --enable-avresample --enable-avisynth --enable-gnutls --enable-ladspa --enable-libass --enable-libbluray --enable-libbs2b --enable-libcaca --enable-libcdio --enable-libflite --enable-libfontconfig --enable-libfreetype --enable-libfribidi --enable-libgme --enable-libgsm --enable-libmp3lame --enable-libmysofa --enable-libopenjpeg --enable-libopenmpt --enable-libopus --enable-libpulse --enable-librubberband --enable-librsvg --enable-libshine --enable-libsnappy --enable-libsoxr --enable-libspeex --enable-libssh --enable-libtheora --enable-libtwolame --enable-libvorbis --enable-libvpx --enable-libwavpack --enable-libwebp --enable-libx265 --enable-libxml2 --enable-libxvid --enable-libzmq --enable-libzvbi --enable-omx --enable-openal --enable-opengl --enable-sdl2 --enable-libdc1394 --enable-libdrm --enable-libiec61883 --enable-chromaprint --enable-frei0r --enable-libopencv --enable-libx264 --enable-shared
  libavutil      55. 78.100 / 55. 78.100
  libavcodec     57.107.100 / 57.107.100
  libavformat    57. 83.100 / 57. 83.100
  libavdevice    57. 10.100 / 57. 10.100
  libavfilter     6.107.100 /  6.107.100
  libavresample   3.  7.  0 /  3.  7.  0
  libswscale      4.  8.100 /  4.  8.100
  libswresample   2.  9.100 /  2.  9.100
  libpostproc    54.  7.100 / 54.  7.100
Guessed Channel Layout for Input Stream #0.0 : mono
Input #0, wav, from '/media/kaldinew/data2/large-farsdat/CD9/018/Fixed/018F10.wav':
  Duration: 00:01:32.38, bitrate: 352 kb/s
    Stream #0:0: Audio: pcm_s16le ([1][0][0][0] / 0x0001), 22050 Hz, mono, s16, 352 kb/s
Stream mapping:
  Stream #0:0 -> #0:0 (pcm_s16le (native) -> pcm_s16le (native))
Press [q] to stop, [?] for help
Output #0, wav, to 'pipe:':
  Metadata:
    ISFT            : Lavf57.83.100
VLOG[1] (compute-mfcc-feats[5.5.931~1-aecd]:Read():wave-reader.cc:249) Read in RIFF chunk size: 4294967295, data chunk size: 4294967295. Assume 'stream mode' (reading data to EOF).
    Stream #0:0: Audio: pcm_s16le ([1][0][0][0] / 0x0001), 8000 Hz, mono, s16, 128 kb/s
    Metadata:
      encoder         : Lavc57.107.100 pcm_s16le
size=      94kB time=00:00:06.00 bitrate= 128.1kbits/s speed= 331x    
video:0kB audio:94kB subtitle:0kB other streams:0kB global headers:0kB muxing overhead: 0.081250%
VLOG[2] (compute-mfcc-feats[5.5.931~1-aecd]:main():compute-mfcc-feats.cc:182) Processed features for key utt-018F10
ffmpeg version 3.4.8-0ubuntu0.2 Copyright (c) 2000-2020 the FFmpeg developers
  built with gcc 7 (Ubuntu 7.5.0-3ubuntu1~18.04)
  configuration: --prefix=/usr --extra-version=0ubuntu0.2 --toolchain=hardened --libdir=/usr/lib/x86_64-linux-gnu --incdir=/usr/include/x86_64-linux-gnu --enable-gpl --disable-stripping --enable-avresample --enable-avisynth --enable-gnutls --enable-ladspa --enable-libass --enable-libbluray --enable-libbs2b --enable-libcaca --enable-libcdio --enable-libflite --enable-libfontconfig --enable-libfreetype --enable-libfribidi --enable-libgme --enable-libgsm --enable-libmp3lame --enable-libmysofa --enable-libopenjpeg --enable-libopenmpt --enable-libopus --enable-libpulse --enable-librubberband --enable-librsvg --enable-libshine --enable-libsnappy --enable-libsoxr --enable-libspeex --enable-libssh --enable-libtheora --enable-libtwolame --enable-libvorbis --enable-libvpx --enable-libwavpack --enable-libwebp --enable-libx265 --enable-libxml2 --enable-libxvid --enable-libzmq --enable-libzvbi --enable-omx --enable-openal --enable-opengl --enable-sdl2 --enable-libdc1394 --enable-libdrm --enable-libiec61883 --enable-chromaprint --enable-frei0r --enable-libopencv --enable-libx264 --enable-shared
  libavutil      55. 78.100 / 55. 78.100
  libavcodec     57.107.100 / 57.107.100
  libavformat    57. 83.100 / 57. 83.100
  libavdevice    57. 10.100 / 57. 10.100
  libavfilter     6.107.100 /  6.107.100
  libavresample   3.  7.  0 /  3.  7.  0
  libswscale      4.  8.100 /  4.  8.100
  libswresample   2.  9.100 /  2.  9.100
  libpostproc    54.  7.100 / 54.  7.100
Guessed Channel Layout for Input Stream #0.0 : mono
Input #0, wav, from '/media/kaldinew/data2/large-farsdat/CD10/019/Fixed/019F02.wav':
  Duration: 00:01:47.77, bitrate: 352 kb/s
    Stream #0:0: Audio: pcm_s16le ([1][0][0][0] / 0x0001), 22050 Hz, mono, s16, 352 kb/s
Stream mapping:
  Stream #0:0 -> #0:0 (pcm_s16le (native) -> pcm_s16le (native))
Press [q] to stop, [?] for help
Output #0, wav, to 'pipe:':
  Metadata:
    ISFT            : Lavf57.83.100
VLOG[1] (compute-mfcc-feats[5.5.931~1-aecd]:Read():wave-reader.cc:249) Read in RIFF chunk size: 4294967295, data chunk size: 4294967295. Assume 'stream mode' (reading data to EOF).
    Stream #0:0: Audio: pcm_s16le ([1][0][0][0] / 0x0001), 8000 Hz, mono, s16, 128 kb/s
    Metadata:
      encoder         : Lavc57.107.100 pcm_s16le
size=      94kB time=00:00:06.00 bitrate= 128.1kbits/s speed= 315x    
video:0kB audio:94kB subtitle:0kB other streams:0kB global headers:0kB muxing overhead: 0.081250%
LOG (compute-mfcc-feats[5.5.931~1-aecd]:main():compute-mfcc-feats.cc:181) Processed 10 utterances
VLOG[2] (compute-mfcc-feats[5.5.931~1-aecd]:main():compute-mfcc-feats.cc:182) Processed features for key utt-019F02
ffmpeg version 3.4.8-0ubuntu0.2 Copyright (c) 2000-2020 the FFmpeg developers
  built with gcc 7 (Ubuntu 7.5.0-3ubuntu1~18.04)
  configuration: --prefix=/usr --extra-version=0ubuntu0.2 --toolchain=hardened --libdir=/usr/lib/x86_64-linux-gnu --incdir=/usr/include/x86_64-linux-gnu --enable-gpl --disable-stripping --enable-avresample --enable-avisynth --enable-gnutls --enable-ladspa --enable-libass --enable-libbluray --enable-libbs2b --enable-libcaca --enable-libcdio --enable-libflite --enable-libfontconfig --enable-libfreetype --enable-libfribidi --enable-libgme --enable-libgsm --enable-libmp3lame --enable-libmysofa --enable-libopenjpeg --enable-libopenmpt --enable-libopus --enable-libpulse --enable-librubberband --enable-librsvg --enable-libshine --enable-libsnappy --enable-libsoxr --enable-libspeex --enable-libssh --enable-libtheora --enable-libtwolame --enable-libvorbis --enable-libvpx --enable-libwavpack --enable-libwebp --enable-libx265 --enable-libxml2 --enable-libxvid --enable-libzmq --enable-libzvbi --enable-omx --enable-openal --enable-opengl --enable-sdl2 --enable-libdc1394 --enable-libdrm --enable-libiec61883 --enable-chromaprint --enable-frei0r --enable-libopencv --enable-libx264 --enable-shared
  libavutil      55. 78.100 / 55. 78.100
  libavcodec     57.107.100 / 57.107.100
  libavformat    57. 83.100 / 57. 83.100
  libavdevice    57. 10.100 / 57. 10.100
  libavfilter     6.107.100 /  6.107.100
  libavresample   3.  7.  0 /  3.  7.  0
  libswscale      4.  8.100 /  4.  8.100
  libswresample   2.  9.100 /  2.  9.100
  libpostproc    54.  7.100 / 54.  7.100
Guessed Channel Layout for Input Stream #0.0 : mono
Input #0, wav, from '/media/kaldinew/data2/large-farsdat/CD10/019/Fixed/019F03.wav':
  Duration: 00:01:37.05, bitrate: 352 kb/s
    Stream #0:0: Audio: pcm_s16le ([1][0][0][0] / 0x0001), 22050 Hz, mono, s16, 352 kb/s
Stream mapping:
  Stream #0:0 -> #0:0 (pcm_s16le (native) -> pcm_s16le (native))
Press [q] to stop, [?] for help
Output #0, wav, to 'pipe:':
  Metadata:
    ISFT            : Lavf57.83.100
VLOG[1] (compute-mfcc-feats[5.5.931~1-aecd]:Read():wave-reader.cc:249) Read in RIFF chunk size: 4294967295, data chunk size: 4294967295. Assume 'stream mode' (reading data to EOF).
    Stream #0:0: Audio: pcm_s16le ([1][0][0][0] / 0x0001), 8000 Hz, mono, s16, 128 kb/s
    Metadata:
      encoder         : Lavc57.107.100 pcm_s16le
size=      94kB time=00:00:06.00 bitrate= 128.1kbits/s speed= 224x    
video:0kB audio:94kB subtitle:0kB other streams:0kB global headers:0kB muxing overhead: 0.081250%
VLOG[2] (compute-mfcc-feats[5.5.931~1-aecd]:main():compute-mfcc-feats.cc:182) Processed features for key utt-019F03
ffmpeg version 3.4.8-0ubuntu0.2 Copyright (c) 2000-2020 the FFmpeg developers
  built with gcc 7 (Ubuntu 7.5.0-3ubuntu1~18.04)
  configuration: --prefix=/usr --extra-version=0ubuntu0.2 --toolchain=hardened --libdir=/usr/lib/x86_64-linux-gnu --incdir=/usr/include/x86_64-linux-gnu --enable-gpl --disable-stripping --enable-avresample --enable-avisynth --enable-gnutls --enable-ladspa --enable-libass --enable-libbluray --enable-libbs2b --enable-libcaca --enable-libcdio --enable-libflite --enable-libfontconfig --enable-libfreetype --enable-libfribidi --enable-libgme --enable-libgsm --enable-libmp3lame --enable-libmysofa --enable-libopenjpeg --enable-libopenmpt --enable-libopus --enable-libpulse --enable-librubberband --enable-librsvg --enable-libshine --enable-libsnappy --enable-libsoxr --enable-libspeex --enable-libssh --enable-libtheora --enable-libtwolame --enable-libvorbis --enable-libvpx --enable-libwavpack --enable-libwebp --enable-libx265 --enable-libxml2 --enable-libxvid --enable-libzmq --enable-libzvbi --enable-omx --enable-openal --enable-opengl --enable-sdl2 --enable-libdc1394 --enable-libdrm --enable-libiec61883 --enable-chromaprint --enable-frei0r --enable-libopencv --enable-libx264 --enable-shared
  libavutil      55. 78.100 / 55. 78.100
  libavcodec     57.107.100 / 57.107.100
  libavformat    57. 83.100 / 57. 83.100
  libavdevice    57. 10.100 / 57. 10.100
  libavfilter     6.107.100 /  6.107.100
  libavresample   3.  7.  0 /  3.  7.  0
  libswscale      4.  8.100 /  4.  8.100
  libswresample   2.  9.100 /  2.  9.100
  libpostproc    54.  7.100 / 54.  7.100
Guessed Channel Layout for Input Stream #0.0 : mono
Input #0, wav, from '/media/kaldinew/data2/large-farsdat/CD10/019/Fixed/019F04.wav':
  Duration: 00:01:44.24, bitrate: 352 kb/s
    Stream #0:0: Audio: pcm_s16le ([1][0][0][0] / 0x0001), 22050 Hz, mono, s16, 352 kb/s
Stream mapping:
  Stream #0:0 -> #0:0 (pcm_s16le (native) -> pcm_s16le (native))
Press [q] to stop, [?] for help
Output #0, wav, to 'pipe:':
  Metadata:
    ISFT            : Lavf57.83.100
    Stream #0:0: Audio: pcm_s16le ([1][0][0][0] / 0x0001), 8000 Hz, mono, s16, 128 kb/s
    Metadata:
      encoder         : Lavc57.107.100 pcm_s16le
VLOG[1] (compute-mfcc-feats[5.5.931~1-aecd]:Read():wave-reader.cc:249) Read in RIFF chunk size: 4294967295, data chunk size: 4294967295. Assume 'stream mode' (reading data to EOF).
size=      94kB time=00:00:06.00 bitrate= 128.1kbits/s speed= 173x    
video:0kB audio:94kB subtitle:0kB other streams:0kB global headers:0kB muxing overhead: 0.081250%
VLOG[2] (compute-mfcc-feats[5.5.931~1-aecd]:main():compute-mfcc-feats.cc:182) Processed features for key utt-019F04
ffmpeg version 3.4.8-0ubuntu0.2 Copyright (c) 2000-2020 the FFmpeg developers
  built with gcc 7 (Ubuntu 7.5.0-3ubuntu1~18.04)
  configuration: --prefix=/usr --extra-version=0ubuntu0.2 --toolchain=hardened --libdir=/usr/lib/x86_64-linux-gnu --incdir=/usr/include/x86_64-linux-gnu --enable-gpl --disable-stripping --enable-avresample --enable-avisynth --enable-gnutls --enable-ladspa --enable-libass --enable-libbluray --enable-libbs2b --enable-libcaca --enable-libcdio --enable-libflite --enable-libfontconfig --enable-libfreetype --enable-libfribidi --enable-libgme --enable-libgsm --enable-libmp3lame --enable-libmysofa --enable-libopenjpeg --enable-libopenmpt --enable-libopus --enable-libpulse --enable-librubberband --enable-librsvg --enable-libshine --enable-libsnappy --enable-libsoxr --enable-libspeex --enable-libssh --enable-libtheora --enable-libtwolame --enable-libvorbis --enable-libvpx --enable-libwavpack --enable-libwebp --enable-libx265 --enable-libxml2 --enable-libxvid --enable-libzmq --enable-libzvbi --enable-omx --enable-openal --enable-opengl --enable-sdl2 --enable-libdc1394 --enable-libdrm --enable-libiec61883 --enable-chromaprint --enable-frei0r --enable-libopencv --enable-libx264 --enable-shared
  libavutil      55. 78.100 / 55. 78.100
  libavcodec     57.107.100 / 57.107.100
  libavformat    57. 83.100 / 57. 83.100
  libavdevice    57. 10.100 / 57. 10.100
  libavfilter     6.107.100 /  6.107.100
  libavresample   3.  7.  0 /  3.  7.  0
  libswscale      4.  8.100 /  4.  8.100
  libswresample   2.  9.100 /  2.  9.100
  libpostproc    54.  7.100 / 54.  7.100
Guessed Channel Layout for Input Stream #0.0 : mono
Input #0, wav, from '/media/kaldinew/data2/large-farsdat/CD10/019/Fixed/019F05.wav':
  Duration: 00:01:28.63, bitrate: 352 kb/s
    Stream #0:0: Audio: pcm_s16le ([1][0][0][0] / 0x0001), 22050 Hz, mono, s16, 352 kb/s
Stream mapping:
  Stream #0:0 -> #0:0 (pcm_s16le (native) -> pcm_s16le (native))
Press [q] to stop, [?] for help
Output #0, wav, to 'pipe:':
  Metadata:
    ISFT            : Lavf57.83.100
VLOG[1] (compute-mfcc-feats[5.5.931~1-aecd]:Read():wave-reader.cc:249) Read in RIFF chunk size: 4294967295, data chunk size: 4294967295. Assume 'stream mode' (reading data to EOF).
    Stream #0:0: Audio: pcm_s16le ([1][0][0][0] / 0x0001), 8000 Hz, mono, s16, 128 kb/s
    Metadata:
      encoder         : Lavc57.107.100 pcm_s16le
size=      94kB time=00:00:06.00 bitrate= 128.1kbits/s speed= 239x    
video:0kB audio:94kB subtitle:0kB other streams:0kB global headers:0kB muxing overhead: 0.081250%
VLOG[2] (compute-mfcc-feats[5.5.931~1-aecd]:main():compute-mfcc-feats.cc:182) Processed features for key utt-019F05
LOG (compute-mfcc-feats[5.5.931~1-aecd]:main():compute-mfcc-feats.cc:185)  Done 13 out of 13 utterances.
LOG (copy-feats[5.5.931~1-aecd]:main():copy-feats.cc:143) Copied 13 feature matrices.
# Accounting: time=3 threads=1
# Ended (code 0) at Mon Jun 21 15:39:13 EDT 2021, elapsed time 3 seconds
